<?xml version="1.0" encoding="utf-8"?>
<!-- Generator: Adobe Illustrator 24.3.0, SVG Export Plug-In . SVG Version: 6.00 Build 0)  -->
<svg version="1.1" id="Calque_1" xmlns="http://www.w3.org/2000/svg" xmlns:xlink="http://www.w3.org/1999/xlink" x="0px" y="0px"
	 viewBox="0 0 1920 1080" style="enable-background:new 0 0 1920 1080;" xml:space="preserve">
<style type="text/css">
	.st0{clip-path:url(#SVGID_2_);}
	.st1{fill:#F28963;}
	.st2{clip-path:url(#SVGID_2_);fill:none;stroke:#F25922;stroke-width:2;stroke-miterlimit:10;}
	.st3{clip-path:url(#SVGID_2_);fill:#F25922;}
	.st4{clip-path:url(#SVGID_2_);fill:#0396A6;}
</style>
<defs>
	<rect id="SVGID_1_" width="1920" height="1080"/>
</defs>
<clipPath id="SVGID_2_">
	<use xlink:href="#SVGID_1_"  style="overflow:visible;"/>
</clipPath>
<g class="st0">
	<rect class="st1" width="1920" height="1080"/>
</g>
<path class="st2" d="M203.5-219.5c195.72,201.12,218.85,330.77,196,415c-31.75,117.04-150.56,140.1-190,300
	c-7.47,30.27-42.62,172.78,43,269c75.1,84.4,218.47,105.49,291,68c9.76-5.04,24.92-14.6,49-19c0,0,60.36-11.02,124,29
	c85.75,53.92,99.54,230.8,79,317c-69.86,293.15-790.93,604.2-1298,327c-496.11-271.21-636.61-1023.13-344-1491
	c251.13-401.54,740.31-464.42,916-487c200.01-25.71,474.69-61.01,637,118c125.85,138.8,170.2,391.07,82,556
	c-49.49,92.55-117.25,113.69-144,228c-21.45,91.66-13.45,230.02,62,265c64.5,29.91,158.85-24.74,209-81
	c66.44-74.53,35.17-129.3,105-213c11.37-13.63,93.96-112.63,180-95c71.71,14.7,121.37,105.4,131,183
	c21.1,169.92-153.19,248.98-118,373c26.72,94.17,159.27,161.57,219,131c75.08-38.43,94.35-261.97,10-409
	c-23.91-41.69-56.29-77.45-43-114c10.64-29.26,42.06-35.67,151-85c101.79-46.09,116.87-59.74,124-79c14.82-40.05-7.12-98-46-121
	c-45.98-27.19-79.61,15.8-160,4c-9.96-1.46-103.1-16.66-157-99c-42.23-64.51-36.09-133.12-33-156"/>
<path class="st3" d="M822-26c-1.85,20.65-189.08-2.31-252,107c-8.59,14.92-4.92,15.04-17,40c-17.38,35.92-66.44,137.32-157,158
	c-99.78,22.79-195.54-64.86-201-70c-33.39-31.39-35.55-52.07-68-65c-60.9-24.26-109.01,26.37-141,6C-51.46,126.15-47.97,16.9-7-47
	C136.86-271.39,825.58-65.92,822-26z"/>
<path class="st3" d="M1942,320c-103.62-43.15-267.31,67.98-313,99c-54.4,36.93-104.54,72-107,124c-3.52,74.34,92.21,145.35,110,158
	c30.41,21.63,38.56,18.8,61,40c9.84,9.3,75.56,73.41,59,139c-17.66,69.96-120.74,109.18-186,87c-36.37-12.36-38.19-36.05-114-108
	c-56.15-53.3-84.23-79.94-107-78c-70.75,6.04-163.11,218.22-98,338c87.37,160.73,481.48,197.71,692,10
	C2197.68,898.34,2110.1,390,1942,320z"/>
<path class="st4" d="M-222,695c22.47-63.45,63.04-163.41,157-206c13.22-5.99,86.05-39,138-6c52.95,33.64,54.15,116.75,55,176
	c2.12,147.45-59.05,207.23-23,252c26.21,32.55,81.13,28.98,173,23c125.95-8.2,124.8-39.29,203-33c94.6,7.6,198.01,61.28,236,121
	c3.83,6.02,11.38,19,26,33c36.33,34.8,76.81,38.07,98,46c66.9,25.02,108.93,158.99,85,235c-43.31,137.56-325.15,156.8-621,177
	c-336.55,22.98-504.82,34.47-592-56C-436.83,1301.51-333.19,1008.91-222,695z"/>
<path class="st4" d="M1887,453c-148.79-244.46-354.73-252.06-376-428c-5.42-44.85,4.37-74.09-20-111
	c-51.7-78.31-169.01-57.59-176-91c-8.53-40.74,149.16-151.69,330-151c211.08,0.81,393.53,153.48,481,317
	c19.28,36.04,131.99,255.89,36,438c-36.13,68.55-113.51,153.9-180,141C1939,559.66,1924.69,514.92,1887,453z"/>
</svg>
