<?xml version="1.0" encoding="utf-8"?>
<!-- Generator: Adobe Illustrator 24.3.0, SVG Export Plug-In . SVG Version: 6.00 Build 0)  -->
<svg version="1.1" id="Calque_1" xmlns="http://www.w3.org/2000/svg" xmlns:xlink="http://www.w3.org/1999/xlink" x="0px" y="0px"
	 viewBox="0 0 1920 1080" style="enable-background:new 0 0 1920 1080;" xml:space="preserve">
<style type="text/css">
	.st0{clip-path:url(#SVGID_2_);}
	.st1{fill:#F28963;}
	.st2{clip-path:url(#SVGID_2_);fill:none;stroke:#F25922;stroke-width:2;stroke-miterlimit:10;}
</style>
<defs>
	<rect id="SVGID_1_" width="1920" height="1080"/>
</defs>
<clipPath id="SVGID_2_">
	<use xlink:href="#SVGID_1_"  style="overflow:visible;"/>
</clipPath>
<g class="st0">
	<rect class="st1" width="1920" height="1080"/>
</g>
<path class="st2" d="M203.5-219.5c195.72,201.12,218.85,330.77,196,415c-31.75,117.04-150.56,140.1-190,300
	c-7.47,30.27-42.62,172.78,43,269c75.1,84.4,218.47,105.49,291,68c9.76-5.04,24.92-14.6,49-19c0,0,60.36-11.02,124,29
	c85.75,53.92,99.54,230.8,79,317c-69.86,293.15-790.93,604.2-1298,327c-496.11-271.21-636.61-1023.13-344-1491
	c251.13-401.54,740.31-464.42,916-487c200.01-25.71,474.69-61.01,637,118c125.85,138.8,170.2,391.07,82,556
	c-49.49,92.55-117.25,113.69-144,228c-21.45,91.66-13.45,230.02,62,265c64.5,29.91,158.85-24.74,209-81
	c66.44-74.53,35.17-129.3,105-213c11.37-13.63,93.96-112.63,180-95c71.71,14.7,121.37,105.4,131,183
	c21.1,169.92-153.19,248.98-118,373c26.72,94.17,159.27,161.57,219,131c75.08-38.43,94.35-261.97,10-409
	c-23.91-41.69-56.29-77.45-43-114c10.64-29.26,42.06-35.67,151-85c101.79-46.09,116.87-59.74,124-79c14.82-40.05-7.12-98-46-121
	c-45.98-27.19-79.61,15.8-160,4c-9.96-1.46-103.1-16.66-157-99c-42.23-64.51-36.09-133.12-33-156"/>
<path class="st2" d="M336.8-215.56c11,17.58-152.1,112.35-136.24,237.47c2.16,17.08,5.16,14.96,10.61,42.15
	c7.84,39.13,29.97,149.58-29.72,220.75c-65.77,78.42-195.03,66.38-202.48,65.59c-45.57-4.86-59.78-20.04-93.45-10.74
	c-63.19,17.44-70.97,86.85-108.76,89.93c-44.27,3.61-107.45-85.57-113.39-161.25C-357.48,2.6,315.55-249.54,336.8-215.56z"/>
<path class="st2" d="M2310-55c-103.62-43.15-267.31,67.98-313,99c-54.4,36.93-104.54,72-107,124c-3.52,74.34,92.21,145.35,110,158
	c30.41,21.63,38.56,18.8,61,40c9.84,9.3,75.56,73.41,59,139c-17.66,69.96-120.74,109.18-186,87c-36.37-12.36-38.19-36.05-114-108
	c-56.15-53.3-84.23-79.94-107-78c-70.75,6.04-163.11,218.22-98,338c87.37,160.73,481.48,197.71,692,10
	C2565.68,523.34,2478.1,15,2310-55z"/>
<path class="st2" d="M-240.34,749.21c28.14-61.15,77.6-157.02,175.04-190.91c13.71-4.77,89.23-31.04,137.98,6.54
	c49.68,38.31,43.33,121.18,38.81,180.26c-11.27,147.03-77.6,201.02-45.77,248.87c23.15,34.8,78.17,36.22,170.2,38.6
	c126.17,3.26,127.85-27.8,205.16-14.45c93.52,16.16,191.63,78.99,224.05,141.91c3.27,6.34,9.61,19.95,22.9,35.22
	c33.02,37.95,73.04,44.89,93.42,54.7c64.35,30.99,94.06,168.21,63.33,241.74c-55.61,133.06-338.03,126.66-634.5,119.93
	c-337.25-7.65-505.87-11.47-584.48-109.47C-509.31,1333.73-379.55,1051.74-240.34,749.21z"/>
</svg>
