<?xml version="1.0" encoding="utf-8"?>
<!-- Generator: Adobe Illustrator 24.3.0, SVG Export Plug-In . SVG Version: 6.00 Build 0)  -->
<svg version="1.1" id="Calque_1_-_copie" xmlns="http://www.w3.org/2000/svg" xmlns:xlink="http://www.w3.org/1999/xlink" x="0px"
	 y="0px" viewBox="0 0 1080 1920" style="enable-background:new 0 0 1080 1920;" xml:space="preserve">
<style type="text/css">
	.st0{clip-path:url(#SVGID_2_);}
	.st1{fill:#F28963;}
	.st2{clip-path:url(#SVGID_2_);fill:none;stroke:#F25922;stroke-width:2;stroke-miterlimit:10;}
	.st3{clip-path:url(#SVGID_2_);fill:#F25922;}
	.st4{clip-path:url(#SVGID_2_);fill:#0396A6;}
</style>
<defs>
	<rect id="SVGID_1_" x="-419" y="420" transform="matrix(-1.836970e-16 1 -1 -1.836970e-16 1501 419)" width="1920" height="1080"/>
</defs>
<clipPath id="SVGID_2_">
	<use xlink:href="#SVGID_1_"  style="overflow:visible;"/>
</clipPath>
<g class="st0">
	<rect x="1" class="st1" width="1080" height="1920"/>
</g>
<path class="st2" d="M1300.5,203.5c-201.12,195.72-330.77,218.85-415,196c-117.04-31.75-140.1-150.56-300-190
	c-30.27-7.47-172.78-42.62-269,43c-84.4,75.1-105.49,218.47-68,291c5.04,9.76,14.6,24.92,19,49c0,0,11.02,60.36-29,124
	c-53.92,85.75-230.8,99.54-317,79c-293.15-69.86-604.2-790.93-327-1298c271.21-496.11,1023.13-636.61,1491-344
	c401.54,251.13,464.42,740.31,487,916c25.71,200.01,61.01,474.69-118,637c-138.8,125.85-391.07,170.2-556,82
	c-92.55-49.49-113.69-117.25-228-144c-91.66-21.45-230.02-13.45-265,62c-29.91,64.5,24.74,158.85,81,209
	c74.53,66.44,129.3,35.17,213,105c13.63,11.37,112.63,93.96,95,180c-14.7,71.71-105.4,121.37-183,131
	c-169.92,21.1-248.98-153.19-373-118c-94.17,26.72-161.57,159.27-131,219c38.43,75.08,261.97,94.35,409,10
	c41.69-23.91,77.45-56.29,114-43c29.26,10.64,35.67,42.06,85,151c46.09,101.79,59.74,116.87,79,124c40.05,14.82,98-7.12,121-46
	c27.19-45.98-15.8-79.61-4-160c1.46-9.96,16.66-103.1,99-157c64.51-42.23,133.12-36.09,156-33"/>
<path class="st3" d="M1107,822c-20.65-1.85,2.31-189.08-107-252c-14.92-8.59-15.04-4.92-40-17c-35.92-17.38-137.32-66.44-158-157
	c-22.79-99.78,64.86-195.54,70-201c31.39-33.39,52.07-35.55,65-68c24.26-60.9-26.37-109.01-6-141c23.85-37.46,133.1-33.97,197,7
	C1352.39,136.86,1146.92,825.58,1107,822z"/>
<path class="st3" d="M761,1942c43.15-103.62-67.98-267.31-99-313c-36.93-54.4-72-104.54-124-107c-74.34-3.52-145.35,92.21-158,110
	c-21.63,30.41-18.8,38.56-40,61c-9.3,9.84-73.41,75.56-139,59c-69.96-17.66-109.18-120.74-87-186c12.36-36.37,36.05-38.19,108-114
	c53.3-56.15,79.94-84.23,78-107c-6.04-70.75-218.22-163.11-338-98c-160.73,87.37-197.71,481.48-10,692
	C182.66,2197.68,691,2110.1,761,1942z"/>
<path class="st4" d="M386-222c63.45,22.47,163.41,63.04,206,157c5.99,13.22,39,86.05,6,138c-33.64,52.95-116.75,54.15-176,55
	c-147.45,2.12-207.23-59.05-252-23c-32.55,26.21-28.98,81.13-23,173c8.2,125.95,39.29,124.8,33,203c-7.6,94.6-61.28,198.01-121,236
	c-6.02,3.83-19,11.38-33,26c-34.8,36.33-38.07,76.81-46,98c-25.02,66.9-158.99,108.93-235,85c-137.56-43.31-156.8-325.15-177-621
	c-22.98-336.55-34.47-504.82,56-592C-220.51-436.83,72.09-333.19,386-222z"/>
<path class="st4" d="M628,1887c244.46-148.79,252.06-354.73,428-376c44.85-5.42,74.09,4.37,111-20c78.31-51.7,57.59-169.01,91-176
	c40.74-8.53,151.69,149.16,151,330c-0.81,211.08-153.48,393.53-317,481c-36.04,19.28-255.89,131.99-438,36
	c-68.55-36.13-153.9-113.51-141-180C521.34,1939,566.08,1924.69,628,1887z"/>
</svg>
