<?xml version="1.0" encoding="utf-8"?>
<!-- Generator: Adobe Illustrator 24.3.0, SVG Export Plug-In . SVG Version: 6.00 Build 0)  -->
<svg version="1.1" id="Calque_1" xmlns="http://www.w3.org/2000/svg" xmlns:xlink="http://www.w3.org/1999/xlink" x="0px" y="0px"
	 viewBox="0 0 1920 1080" style="enable-background:new 0 0 1920 1080;" xml:space="preserve">
<style type="text/css">
	.st0{clip-path:url(#SVGID_2_);fill:#0388A6;}
</style>
<defs>
	<rect id="SVGID_1_" width="1920" height="1080"/>
</defs>
<clipPath id="SVGID_2_">
	<use xlink:href="#SVGID_1_"  style="overflow:visible;"/>
</clipPath>
<path class="st0" d="M-24,1014c47.9,20.74,97.83-75.51,247-100c46.99-7.71,87.54-5.63,176,9c252.75,41.81,290.39,85.79,396,94
	c220.95,17.19,219.44-162.62,478-176c206.89-10.71,457.42,91.49,517,155c7.14,7.61,36.4,41.16,85,55c34.17,9.73,62.68,5.39,65,5
	c102.34-16.99,319.68-809.71-5-1085c-102.79-87.16-136.99-18.22-836-54c-293.62-15.03-592.63,50.97-882-1
	c-40.67-7.3-168.65-32.56-230,35C-44.41-14.41-46.37,31.3-47,53c-5.12,175.09-7.67,262.64,12,477C-7.88,825.48-85.69,987.29-24,1014
	z"/>
</svg>
