<?xml version="1.0" encoding="utf-8"?>
<!-- Generator: Adobe Illustrator 24.3.0, SVG Export Plug-In . SVG Version: 6.00 Build 0)  -->
<svg version="1.1" id="Calque_1" xmlns="http://www.w3.org/2000/svg" xmlns:xlink="http://www.w3.org/1999/xlink" x="0px" y="0px"
	 viewBox="0 0 1920 1080" style="enable-background:new 0 0 1920 1080;" xml:space="preserve">
<style type="text/css">
	.st0{clip-path:url(#SVGID_2_);fill:#0396A6;}
</style>
<defs>
	<rect id="SVGID_1_" width="1920" height="1080"/>
</defs>
<clipPath id="SVGID_2_">
	<use xlink:href="#SVGID_1_"  style="overflow:visible;"/>
</clipPath>
<path class="st0" d="M-68,857c57.39-31.1,125.33-9.93,154-1c37.16,11.58,61.04,27.45,101,54c65.29,43.38,74.05,63.06,108,85
	c65.81,42.52,138.07,36.53,229,29c115.83-9.6,205.83-48.36,255-70c82.31-36.23,82.92-50.71,134-64c92.03-23.94,167.77,2.88,240,24
	c0,0,209.02,61.13,409,74c142.85,9.2,301.39,19.4,392-83c41.13-46.48,69.48-117.52,67-187c-2.12-59.35-25.11-72.32-47-147
	c-14.2-48.46-13.66-124.3-12-274c0.53-47.43-1.32-114.62-5-249c-1.75-63.86-3.09-96.31-26-122c-43.48-48.76-129.81-35.89-178-30
	c-198.51,24.26-43.3-34.16-566-10c-260.69,12.05-228.47,23.31-376,23c-160.64-0.33-268.31-0.56-416-18
	c-70.86-8.37-158.08-21.55-278-8C26.62-106.79-31.27-99.42-65-55c-32.37,42.62-10.44,77.13-16,249c-1.37,42.29-2.05,20.14-12,173
	c-10.25,157.35-7.69,152.68-13,222c-14.85,193.97-40.67,306.89-18,314C-112.52,906.6-106.04,877.61-68,857z"/>
</svg>
