<?xml version="1.0" encoding="utf-8"?>
<!-- Generator: Adobe Illustrator 24.3.0, SVG Export Plug-In . SVG Version: 6.00 Build 0)  -->
<svg version="1.1" id="Calque_1" xmlns="http://www.w3.org/2000/svg" xmlns:xlink="http://www.w3.org/1999/xlink" x="0px" y="0px"
	 viewBox="0 0 1000 442" style="enable-background:new 0 0 1000 442;" xml:space="preserve">
<style type="text/css">
	.st0{fill:#F2E6D8;}
</style>
<g>
	<path class="st0" d="M32.64,213.89c0,4.14-2.63,9.41-7.9,9.41c-0.38,0-1.13-0.38-1.88-0.38c-6.77-1.88-14.67-7.15-14.67-34.24
		c0-7.15,0.75-15.8,1.88-26.34c6.4-50.04,56.81-107.6,145.97-135.82C191.4,15.62,227.52,9.22,261.38,9.22
		c53.42,0,101.2,15.05,131.3,49.29c16.93,19.19,24.83,44.39,24.83,72.99c0,54.18-28.59,119.64-78.63,174.19
		c-76.37,83.52-152.37,114.37-185.1,121.14c-18.43,3.76-37.62,6.02-51.54,6.02c-10.53,0-18.06-1.51-19.56-3.76
		c-1.5-1.88-3.39-4.89-3.39-7.9c0-4.14,3.76-8.28,16.93-8.28c1.88,0,3.76,0.38,5.64,0.38c3.76,0.38,7.52,0.38,11.66,0.38
		c29.35,0,72.99-9.03,140.33-54.55c69.98-47.78,146.73-155.38,146.73-233.63c0-7.15-0.75-13.92-1.88-20.32
		c-11.66-57.94-75.24-79.01-136.94-79.01c-21.82,0-43.64,3.01-62.45,7.52c-71.48,17.31-128.67,46.65-155,91.42
		c-12.79,21.82-16.18,42.51-16.18,58.31c0,16.18,3.76,27.09,3.76,27.09C32.26,211.25,32.64,212.38,32.64,213.89z M244.07,133.75
		c1.5-6.02,4.89-7.9,9.03-7.9c1.88,0,3.76,0.38,5.64,0.75c2.63,0.75,3.39,3.39,3.39,6.02c0,4.51-1.88,9.41-1.88,9.41
		s-59.44,209.55-62.08,224.23c-1.88,10.16-6.77,14.3-12.04,14.3c-2.26,0-4.51-0.75-6.4-2.26c-1.88-1.13-2.63-3.76-2.63-6.77
		c0-8.28,4.89-20.32,4.89-20.32L244.07,133.75z"/>
	<path class="st0" d="M445.36,212.76c1.5,0,3.01,0,4.51,0.38c6.77,1.5,7.15,8.65,7.15,9.78v0.38l-8.28,34.61
		c0,0,18.43-34.99,28.22-47.4c3.39-4.51,7.15-6.4,10.91-6.4c6.77,0,14.3,6.77,21.07,18.43c10.16,16.18,32.73,27.84,49.66,27.84
		c1.5,0,3.01-0.38,4.51-0.38c13.54-1.88,28.22-7.52,35.37-7.52c1.88,0,3.01,0.38,3.76,1.51c1.13,1.5,1.5,3.01,1.5,4.51
		c0,3.39-2.26,6.4-2.26,6.4s-9.41,8.65-39.88,10.16h-3.39c-29.35,0-54.18-22.57-59.82-33.48c-3.39-6.02-5.64-8.28-7.9-8.28
		c-1.88,0-3.39,1.5-5.27,3.39c-4.51,3.76-35.37,62.08-41.76,79.76c-4.89,12.42-10.91,18.06-17.31,18.06c-2.26,0-4.89-0.75-7.52-2.63
		c-1.13-0.75-1.88-3.76-1.88-7.9c0-24.83,18.43-95.94,18.43-95.94C436.7,214.64,440.09,212.76,445.36,212.76z"/>
	<path class="st0" d="M592.46,241.35c1.88,0,3.76,0.38,5.27,1.51c3.76,2.26,4.14,6.02,4.14,7.9v1.13c0,0-5.64,19.56-11.29,39.88
		c-2.26,8.65-3.01,13.54-3.01,16.93c0,1.88,0.38,3.01,0.38,4.14c0,1.13-0.38,1.51-1.13,2.63c-0.75,0.75-2.26,1.13-3.76,1.13
		c-4.89,0-12.79-3.76-14.3-10.16v-1.5c0-11.66,15.05-59.82,15.05-59.82C584.93,243.23,588.69,241.35,592.46,241.35z M615.03,191.69
		c6.77,0,9.41,4.14,9.41,4.14l-6.4,5.64c-6.4,5.64-12.41,17.31-19.94,23.33c-1.88,1.88-4.14,2.63-6.02,2.63
		c-5.27,0-9.41-5.64-9.41-11.29c0-7.9,21.82-21.82,21.82-21.82C609.01,192.44,612.4,191.69,615.03,191.69z"/>
	<path class="st0" d="M639.48,231.95c-3.01,0-6.02-2.63-6.02-8.28c0-0.75,0-2.26,0.38-3.39c1.5-9.03,16.18-6.4,38-7.52h2.63
		c13.92,0,17.68,6.77,17.68,12.79c0,2.63-0.38,4.51-1.13,6.4c-2.26,6.02-48.16,53.8-48.16,53.8s4.51-1.13,14.3-6.02
		c9.78-4.51,55.68-25.21,67.72-31.6c3.01-1.5,5.64-2.26,7.52-2.26c6.02,0,8.28,5.27,8.28,10.91v0.75
		c-0.75,7.15-53.05,26.71-75.24,37.25c-13.17,6.4-24.08,10.53-31.98,10.53c-5.64,0-9.41-1.88-12.04-5.64
		c-1.88-2.26-2.63-4.89-2.63-7.52c0-6.77,5.27-12.79,5.27-12.79s43.27-48.16,44.77-49.66c0-0.38-0.75-0.38-1.88-0.38
		c-6.4,0-25.96,2.26-25.96,2.26C640.61,231.57,639.86,231.95,639.48,231.95z"/>
	<path class="st0" d="M736.55,231.95c-3.01,0-6.02-2.63-6.02-8.28c0-0.75,0-2.26,0.38-3.39c1.5-9.03,16.18-6.4,38-7.52h2.63
		c13.92,0,17.68,6.77,17.68,12.79c0,2.63-0.38,4.51-1.13,6.4c-2.26,6.02-48.16,53.8-48.16,53.8s4.51-1.13,14.3-6.02
		c9.78-4.51,55.68-25.21,67.72-31.6c3.01-1.5,5.64-2.26,7.52-2.26c6.02,0,8.28,5.27,8.28,10.91v0.75
		c-0.75,7.15-53.05,26.71-75.24,37.25c-13.17,6.4-24.08,10.53-31.98,10.53c-5.64,0-9.41-1.88-12.04-5.64
		c-1.88-2.26-2.63-4.89-2.63-7.52c0-6.77,5.27-12.79,5.27-12.79s43.27-48.16,44.77-49.66c0-0.38-0.75-0.38-1.88-0.38
		c-6.4,0-25.96,2.26-25.96,2.26C737.68,231.57,736.92,231.95,736.55,231.95z"/>
	<path class="st0" d="M883.27,69.42c2.26,0,4.51,0.75,6.39,1.51c1.5,0.75,1.88,2.63,1.88,4.89c0,4.14-1.5,9.03-1.5,9.03
		s-15.05,52.29-33.48,117.76c-18.43,65.84-44.77,168.92-48.16,179.46c-1.5,4.51-3.76,6.02-6.39,6.02c-3.01,0-6.77-2.26-9.03-4.51
		c-0.38-0.38-0.38-0.75-0.38-1.88c0-14.3,23.33-102.71,36.87-147.48c14.67-48.53,45.52-160.27,45.52-160.27
		C876.5,70.92,879.89,69.42,883.27,69.42z"/>
	<path class="st0" d="M881.39,297.41c0,3.76,1.13,6.77,3.01,8.28c1.13,0.75,3.39,1.13,6.02,1.13c6.02,0,15.8-2.26,27.84-8.65
		c17.68-9.78,54.93-39.13,59.44-44.39c2.26-3.01,5.27-4.14,8.28-4.14c1.88,0,4.14,0.75,5.27,2.63c0.38,0.75,0.75,1.88,0.75,3.01
		c0,3.76-3.01,8.28-3.01,8.28s-56.43,54.55-87.28,57.56c-1.88,0-3.76,0.38-5.27,0.38c-20.32,0-29.72-12.42-29.72-30.47
		c0-6.02,0.75-12.04,2.63-18.81c8.28-30.1,34.99-55.68,48.16-55.68h0.38c7.52,0.38,12.41,7.15,12.41,16.18
		c0,5.64-1.88,12.04-6.02,18.43c-10.53,16.18-39.5,31.6-39.5,31.6C882.52,288,881.39,293.27,881.39,297.41z M914.87,236.08
		c0-0.38-0.38-0.75-0.75-0.75h-0.38c-4.14,1.13-22.2,27.46-22.2,27.46C905.84,253.77,914.87,239.47,914.87,236.08z"/>
</g>
</svg>
